<svg xmlns="http://www.w3.org/2000/svg" viewBox="0 0 48 48"><defs><style>.cls-1{fill:#6fabe6;}.cls-2{fill:#82bcf4;}.cls-3,.cls-4{fill:#5b9ad8;}.cls-4{opacity:0.32;}.cls-5{fill:#425b72;}.cls-6{fill:#374f68;}</style></defs><title>Clothes</title><g id="Clothes"><path class="cls-1" d="M24,9V44l-3,3H11V44H3V14.67A10,10,0,0,1,9.15,5.44L15,3l4,10Z"/><path class="cls-1" d="M45,14.67V44H37v3H27l-3-3V9l5,4L33,3l5.85,2.44A10,10,0,0,1,45,14.67Z"/><path class="cls-2" d="M45,14.67V44H37v1H25l-1-1V9l5,4L33,3l5.85,2.44A10,10,0,0,1,45,14.67Z"/><path class="cls-2" d="M24,9V44l-1,1H20a6,6,0,0,1-6-6V3.42L15,3l4,10Z"/><path class="cls-1" d="M39,18V44H37V18A1,1,0,0,1,39,18Z"/><path class="cls-3" d="M11,18V44H9V18A1,1,0,0,1,11,18Z"/><path class="cls-1" d="M45,39v2H41a1,1,0,0,1,0-2Z"/><path class="cls-3" d="M7,41H3V39H7A1,1,0,0,1,7,41Z"/><path class="cls-1" d="M33,3,29,13,24,9l7-8Z"/><polygon class="cls-4" points="25 9.8 28.55 12.64 28 14 25 11.6 25 9.8"/><path class="cls-3" d="M25,7.86c-1.19,1.36-.86,1-1.41,1.47C31.62.12,32.3-.48,25,7.86Z"/><path class="cls-1" d="M24,9l-5,4L15,3l2-2Z"/><polygon class="cls-5" points="31 1 24 9 17 1 31 1"/><polygon class="cls-6" points="29 1 23 7.86 24 9 31 1 29 1"/><path class="cls-5" d="M21,18a1,1,0,0,0-2,0A1,1,0,0,0,21,18Z"/><path class="cls-5" d="M21,24a1,1,0,0,0-2,0A1,1,0,0,0,21,24Z"/><path class="cls-5" d="M21,30a1,1,0,0,0-2,0A1,1,0,0,0,21,30Z"/><path class="cls-5" d="M21,36a1,1,0,0,0-2,0A1,1,0,0,0,21,36Z"/><path class="cls-6" d="M31.5,24A2.5,2.5,0,0,1,29,21.5V18h5v3.5A2.5,2.5,0,0,1,31.5,24Z"/><path class="cls-5" d="M32,18v3.5a2.51,2.51,0,0,1-1.5,2.29A2.5,2.5,0,0,0,34,21.5V18Z"/><path class="cls-3" d="M25,9.8v1.8L23,10a4.52,4.52,0,0,1,1-1Z"/><path class="cls-1" d="M23.59,9.33c-.74.84-.59.74-.59.47Z"/><polygon class="cls-1" points="25 11.6 25 45 24 44 23 45 23 10 25 11.6"/></g></svg>